# xmcd CD database file
#
# Track frame offsets:
#	150
#	20180
#	43402
#
# Disc length: 840 seconds
#
# Revision: 0
# Processed by: cddbd v1.5.1PL0 Copyright (c) Steve Scherf et al.
# Submitted via: CDex 1.51
#
DISCID=27034603
DTITLE=円広志 - 夢のプロポーズ
DYEAR=1900
DGENRE=サウンドトラック (テレビ)
TTITLE0=夢のプロポーズ
TTITLE1=MUSIC
TTITLE2=ハートスランプ一人ぼっち
EXTD=
EXTT0=
EXTT1=
EXTT2=
PLAYORDER=
